HIERARCHY
ROOT hip
{
  OFFSET 5.51535 103.731 -2.80141
  CHANNELS 6 Xposition Yposition Zposition Zrotation Xrotation Yrotation
  JOINT abdomen
  {
    OFFSET 0 -1.186 -1.5018
    CHANNELS 6 Xposition Yposition Zposition Zrotation Xrotation Yrotation
    JOINT abdomen2
    {
      OFFSET 0 9.964 0.2134
      CHANNELS 6 Xposition Yposition Zposition Zrotation Xrotation Yrotation
      JOINT chest
      {
        OFFSET 0 13.134 -3.2573
        CHANNELS 6 Xposition Yposition Zposition Zrotation Xrotation Yrotation
        JOINT neck
        {
          OFFSET 0 20.686 -1.6905
          CHANNELS 6 Xposition Yposition Zposition Zrotation Xrotation Yrotation
          JOINT head
          {
            OFFSET 0 7.23801 -0.1237
            CHANNELS 6 Xposition Yposition Zposition Zrotation Xrotation Yrotation
            End Site
            {
              OFFSET 0 0 0
            }
          }
        }
        JOINT lCollar
        {
          OFFSET 1.7069 20.075 5.0056
          CHANNELS 6 Xposition Yposition Zposition Zrotation Xrotation Yrotation
          JOINT lShldr
          {
            OFFSET 13.6458 -0.0470195 -4.849
            CHANNELS 6 Xposition Yposition Zposition Zrotation Xrotation Yrotation
            JOINT lForeArm
            {
              OFFSET 28.3255 -0.97589 2.2888
              CHANNELS 6 Xposition Yposition Zposition Zrotation Xrotation Yrotation
              JOINT lHand
              {
                OFFSET 22.1583 -0.529998 10.8316
                CHANNELS 6 Xposition Yposition Zposition Zrotation Xrotation Yrotation
                JOINT lThumb1
                {
                  OFFSET 0.786 0.111997 2.5817
                  CHANNELS 6 Xposition Yposition Zposition Zrotation Xrotation Yrotation
                  JOINT lThumb2
                  {
                    OFFSET 0.360097 -0.877999 4.2331
                    CHANNELS 6 Xposition Yposition Zposition Zrotation Xrotation Yrotation
                    JOINT lThumb2_End
                    {
                      OFFSET 1.8127 -1.21601 2.2227
                      CHANNELS 6 Xposition Yposition Zposition Zrotation Xrotation Yrotation
                      End Site
                      {
                        OFFSET 0.0180981 -0.012195 0.0222007
                      }
                    }
                  }
                }
                JOINT lCarpal1
                {
                  OFFSET 0.9571 1.114 1.7695
                  CHANNELS 6 Xposition Yposition Zposition Zrotation Xrotation Yrotation
                  JOINT lIndex1
                  {
                    OFFSET 4.12461 0.486992 4.1451
                    CHANNELS 6 Xposition Yposition Zposition Zrotation Xrotation Yrotation
                    JOINT lIndex2
                    {
                      OFFSET 3.4052 -1.45401 2.7682
                      CHANNELS 6 Xposition Yposition Zposition Zrotation Xrotation Yrotation
                      JOINT lIndex2_End
                      {
                        OFFSET 1.45309 -1.79499 1.2713
                        CHANNELS 6 Xposition Yposition Zposition Zrotation Xrotation Yrotation
                        End Site
                        {
                          OFFSET 0.0144979 -0.0179083 0.0126995
                        }
                      }
                    }
                  }
                  JOINT lMid1
                  {
                    OFFSET 5.6954 0.209987 2.1184
                    CHANNELS 6 Xposition Yposition Zposition Zrotation Xrotation Yrotation
                    JOINT lMid2
                    {
                      OFFSET 3.9766 -1.53999 2.3863
                      CHANNELS 6 Xposition Yposition Zposition Zrotation Xrotation Yrotation
                      JOINT lMid2_End
                      {
                        OFFSET 1.4042 -1.926 1.125
                        CHANNELS 6 Xposition Yposition Zposition Zrotation Xrotation Yrotation
                        End Site
                        {
                          OFFSET 0.013999 -0.0193044 0.011301
                        }
                      }
                    }
                  }
                }
                JOINT lCarpal2
                {
                  OFFSET 2.0956 0.66 -0.3894
                  CHANNELS 6 Xposition Yposition Zposition Zrotation Xrotation Yrotation
                  JOINT lRing1
                  {
                    OFFSET 5.0395 -0.090013 2.4971
                    CHANNELS 6 Xposition Yposition Zposition Zrotation Xrotation Yrotation
                    JOINT lRing2
                    {
                      OFFSET 3.7921 -1.55199 1.4806
                      CHANNELS 6 Xposition Yposition Zposition Zrotation Xrotation Yrotation
                      JOINT lRing2_End
                      {
                        OFFSET 1.4655 -1.808 0.9609
                        CHANNELS 6 Xposition Yposition Zposition Zrotation Xrotation Yrotation
                        End Site
                        {
                          OFFSET 0.0147015 -0.0181014 0.00959957
                        }
                      }
                    }
                  }
                  JOINT lPinky1
                  {
                    OFFSET 4.9141 -1.269 0.3591
                    CHANNELS 6 Xposition Yposition Zposition Zrotation Xrotation Yrotation
                    JOINT lPinky2
                    {
                      OFFSET 3.1477 -1.685 0.8462
                      CHANNELS 6 Xposition Yposition Zposition Zrotation Xrotation Yrotation
                      JOINT lPinky2_End
                      {
                        OFFSET 0.805498 -1.58501 0.795499
                        CHANNELS 6 Xposition Yposition Zposition Zrotation Xrotation Yrotation
                        End Site
                        {
                          OFFSET 0.00809703 -0.0157944 0.00799848
                        }
                      }
                    }
                  }
                }
              }
            }
          }
        }
        JOINT rCollar
        {
          OFFSET -1.7069 20.075 5.0056
          CHANNELS 6 Xposition Yposition Zposition Zrotation Xrotation Yrotation
          JOINT rShldr
          {
            OFFSET -13.6458 -0.0470107 -4.849
            CHANNELS 6 Xposition Yposition Zposition Zrotation Xrotation Yrotation
            JOINT rForeArm
            {
              OFFSET -28.3255 -0.975895 2.2888
              CHANNELS 6 Xposition Yposition Zposition Zrotation Xrotation Yrotation
              JOINT rHand
              {
                OFFSET -22.1583 -0.530007 10.8316
                CHANNELS 6 Xposition Yposition Zposition Zrotation Xrotation Yrotation
                JOINT rThumb1
                {
                  OFFSET -0.785997 0.112005 2.5817
                  CHANNELS 6 Xposition Yposition Zposition Zrotation Xrotation Yrotation
                  JOINT rThumb2
                  {
                    OFFSET -0.360106 -0.877994 4.2331
                    CHANNELS 6 Xposition Yposition Zposition Zrotation Xrotation Yrotation
                    JOINT rThumb2_End
                    {
                      OFFSET -1.8127 -1.216 2.2227
                      CHANNELS 6 Xposition Yposition Zposition Zrotation Xrotation Yrotation
                      End Site
                      {
                        OFFSET -0.0180972 -0.0121973 0.0222005
                      }
                    }
                  }
                }
                JOINT rCarpal1
                {
                  OFFSET -0.9571 1.114 1.7695
                  CHANNELS 6 Xposition Yposition Zposition Zrotation Xrotation Yrotation
                  JOINT rIndex1
                  {
                    OFFSET -4.1246 0.487011 4.1451
                    CHANNELS 6 Xposition Yposition Zposition Zrotation Xrotation Yrotation
                    JOINT rIndex2
                    {
                      OFFSET -3.4052 -1.45401 2.7682
                      CHANNELS 6 Xposition Yposition Zposition Zrotation Xrotation Yrotation
                      JOINT rIndex2_End
                      {
                        OFFSET -1.4531 -1.795 1.2713
                        CHANNELS 6 Xposition Yposition Zposition Zrotation Xrotation Yrotation
                        End Site
                        {
                          OFFSET -0.0145077 -0.0180048 0.0127017
                        }
                      }
                    }
                  }
                  JOINT rMid1
                  {
                    OFFSET -5.6954 0.210002 2.1184
                    CHANNELS 6 Xposition Yposition Zposition Zrotation Xrotation Yrotation
                    JOINT rMid2
                    {
                      OFFSET -3.9766 -1.54 2.3863
                      CHANNELS 6 Xposition Yposition Zposition Zrotation Xrotation Yrotation
                      JOINT rMid2_End
                      {
                        OFFSET -1.4042 -1.926 1.125
                        CHANNELS 6 Xposition Yposition Zposition Zrotation Xrotation Yrotation
                        End Site
                        {
                          OFFSET -0.0139948 -0.0192916 0.0112994
                        }
                      }
                    }
                  }
                }
                JOINT rCarpal2
                {
                  OFFSET -2.0956 0.66 -0.3894
                  CHANNELS 6 Xposition Yposition Zposition Zrotation Xrotation Yrotation
                  JOINT rRing1
                  {
                    OFFSET -5.03951 -0.0899879 2.4971
                    CHANNELS 6 Xposition Yposition Zposition Zrotation Xrotation Yrotation
                    JOINT rRing2
                    {
                      OFFSET -3.7921 -1.55201 1.4806
                      CHANNELS 6 Xposition Yposition Zposition Zrotation Xrotation Yrotation
                      JOINT rRing2_End
                      {
                        OFFSET -1.4655 -1.808 0.960901
                        CHANNELS 6 Xposition Yposition Zposition Zrotation Xrotation Yrotation
                        End Site
                        {
                          OFFSET -0.0146934 -0.0180999 0.00959832
                        }
                      }
                    }
                  }
                  JOINT rPinky1
                  {
                    OFFSET -4.91411 -1.26899 0.359202
                    CHANNELS 6 Xposition Yposition Zposition Zrotation Xrotation Yrotation
                    JOINT rPinky2
                    {
                      OFFSET -3.14769 -1.68501 0.846199
                      CHANNELS 6 Xposition Yposition Zposition Zrotation Xrotation Yrotation
                      JOINT rPinky2_End
                      {
                        OFFSET -0.805498 -1.585 0.7955
                        CHANNELS 6 Xposition Yposition Zposition Zrotation Xrotation Yrotation
                        End Site
                        {
                          OFFSET -0.00810035 -0.0158035 0.00800029
                        }
                      }
                    }
                  }
                }
              }
            }
          }
        }
      }
    }
  }
  JOINT lThigh
  {
    OFFSET 8.367 -8.2066 0.5982
    CHANNELS 6 Xposition Yposition Zposition Zrotation Xrotation Yrotation
    JOINT lShin
    {
      OFFSET 2.1923 -43.463 -0.4932
      CHANNELS 6 Xposition Yposition Zposition Zrotation Xrotation Yrotation
      JOINT lFoot
      {
        OFFSET 0.733301 -45.8593 -2.6451
        CHANNELS 6 Xposition Yposition Zposition Zrotation Xrotation Yrotation
        End Site
        {
          OFFSET 2.6618 -4.2699 12.3931
        }
      }
    }
  }
  JOINT rThigh
  {
    OFFSET -8.367 -8.2066 0.5982
    CHANNELS 6 Xposition Yposition Zposition Zrotation Xrotation Yrotation
    JOINT rShin
    {
      OFFSET -2.1923 -43.463 -0.4931
      CHANNELS 6 Xposition Yposition Zposition Zrotation Xrotation Yrotation
      JOINT rFoot
      {
        OFFSET -0.733299 -45.8593 -2.6451
        CHANNELS 6 Xposition Yposition Zposition Zrotation Xrotation Yrotation
        End Site
        {
          OFFSET -2.6618 -4.2699 12.3931
        }
      }
    }
  }
}
MOTION
Frames:	4
Frame Time:	0.0333333
4.50676 100.476 -5.0124 -8.48028 -11.0484 7.46537 -6.23206e-008 -1.186 -1.5018 2.51476 2.55514 -1.78084 -2.58904e-007 9.964 0.2134 5.11527 5.02827 -3.67766 2.83051e-008 13.134 -3.2573 5.11527 5.02827 -3.67766 2.58996e-006 20.6861 -1.69051 -0.47309 31.0819 -12.1034 4.94505e-007 7.23805 -0.123691 21.7717 9.14571 -10.4349 1.7069 20.075 5.0056 36.376 -2.95414 -4.66779 13.6458 -0.0470186 -4.84901 -78.3483 19.8413 -33.9121 28.3255 -0.975899 2.2888 -50.5573 35.0381 -111.019 22.1583 -0.529985 10.8316 -6.03026 -0.194962 -26.4346 0.785998 0.111997 2.5817 6.57873 2.44473 5.91744 0.360098 -0.877998 4.2331 -3.72226 -0.224401 -6.80076 1.8127 -1.21601 2.2227 -3.30016 -0.221142 -6.03116 0.9571 1.114 1.7695 7.95139e-016 -7.95139e-016 -1.10325e-014 4.12461 0.486992 4.1451 11.3368 -2.72165 -3.61143 3.4052 -1.45401 2.7682 5.64004 -2.63317 -2.19867 1.4531 -1.79499 1.2713 7.42175 -3.51775 -2.84628 5.69541 0.209988 2.1184 9.7098 -5.07781 -3.9691 3.9766 -1.53999 2.3863 8.69941 -4.61053 -3.32686 1.40419 -1.92599 1.125 9.3703 -4.99111 -3.55806 2.0956 0.66 -0.3894 7.95139e-016 -7.95139e-016 -1.10325e-014 5.03951 -0.0900131 2.4971 10.3385 -5.77716 -3.2956 3.79209 -1.55199 1.4806 8.63157 -4.98163 -3.8086 1.4655 -1.808 0.960898 9.29898 -5.3967 -4.07702 4.9141 -1.269 0.3591 10.2065 -6.10614 -2.44048 3.1477 -1.685 0.8462 10.4043 -6.49151 -4.40595 0.805499 -1.58501 0.7955 8.9941 -5.55053 -3.86721 -1.7069 20.075 5.0056 -18.7331 -3.94608 5.47406 -13.6458 -0.0470117 -4.849 68.6925 5.48238 20.2423 -28.3255 -0.975899 2.28881 71.8605 45.9456 104.567 -22.1583 -0.530006 10.8316 0.872993 27.1086 17.9056 -0.786001 0.112005 2.5817 -5.80083 5.11155 -9.08696 -0.360108 -0.877992 4.2331 1.47677 -1.1841 4.36334 -1.8127 -1.216 2.2227 1.19727 -0.973918 3.55501 -0.9571 1.114 1.7695 -7.95139e-016 -3.18055e-015 -7.95139e-016 -4.1246 0.487012 4.1451 -6.83682 0.302195 0.622285 -3.4052 -1.45401 2.7682 -0.955853 -0.320351 0.13174 -1.4531 -1.795 1.2713 -2.94863 -0.995657 0.388704 -5.69541 0.210003 2.1184 -5.71232 -2.08688 0.965136 -3.9766 -1.54 2.3863 -4.5136 -1.7252 0.553559 -1.4042 -1.926 1.125 -5.28251 -2.02359 0.634405 -2.0956 0.66 -0.3894 -7.95139e-016 -3.18055e-015 -7.95139e-016 -5.03952 -0.0899858 2.49711 -6.37859 -2.47987 -0.0697799 -3.7921 -1.55201 1.4806 -4.70021 -1.98983 0.768773 -1.46549 -1.808 0.960898 -5.46983 -2.32223 0.879706 -4.91411 -1.26899 0.359205 -6.15859 -2.61899 -0.853991 -3.1477 -1.68501 0.846198 -6.82731 -3.11882 0.965233 -0.805493 -1.58499 0.795497 -5.17922 -2.36101 0.768392 8.367 -8.2066 0.598201 0.374451 -9.34342 -26.0538 2.19296 -43.463 -0.491685 -0.884965 33.7445 0.428574 0.7333 -45.8593 -2.6451 1.06304 -12.424 2.70659 -8.36701 -8.2066 0.5982 9.94724 -2.12861 5.9954 -2.1923 -43.463 -0.493099 2.08371 18.4195 -1.47729 -0.733301 -45.8593 -2.6451 2.45465 -7.80289 -12.0098 
4.8305 98.9836 -4.97821 -8.62384 -11.6734 4.8661 1.46578e-006 -1.186 -1.5018 2.87538 2.88385 -1.6281 -4.21177e-008 9.964 0.2134 5.84257 5.68109 -3.40548 -9.1721e-008 13.134 -3.2573 5.84257 5.68109 -3.40548 -9.51175e-006 20.6861 -1.69051 -0.458937 30.6087 -11.7816 -7.0337e-008 7.23804 -0.123678 21.7178 8.79113 -11.1866 1.7069 20.075 5.0056 37.1035 -2.94223 -5.73613 13.6458 -0.0470157 -4.849 -79.0265 20.3855 -32.9319 28.3255 -0.97591 2.2888 -50.1902 35.2977 -109.382 22.1583 -0.529989 10.8316 -9.56494 -2.31386 -27.1223 0.786005 0.111997 2.5817 6.68974 2.47011 6.12023 0.360097 -0.877999 4.2331 -3.7223 -0.224436 -6.80075 1.81269 -1.21601 2.2227 -3.30015 -0.221157 -6.03118 0.9571 1.114 1.7695 -2.98177e-016 -1.98785e-016 -5.92937e-015 4.1246 0.486993 4.1451 11.3573 -2.1658 -2.80683 3.4052 -1.45401 2.7682 5.41741 -2.52436 -2.11616 1.4531 -1.79499 1.2713 7.20126 -3.40693 -2.76749 5.69541 0.209988 2.11841 9.50791 -4.4692 -3.76173 3.9766 -1.53999 2.3863 8.48319 -4.4885 -3.25166 1.40419 -1.92599 1.125 9.15247 -4.86709 -3.48358 2.0956 0.66 -0.3894 -2.98177e-016 -1.98785e-016 -5.92937e-015 5.03951 -0.0900133 2.49711 10.0108 -5.70899 -3.389 3.7921 -1.55199 1.4806 8.4222 -4.85219 -3.72362 1.4655 -1.808 0.960899 9.09256 -5.2678 -3.99453 4.9141 -1.269 0.3591 9.73587 -6.11254 -2.75601 3.1477 -1.685 0.846198 10.2002 -6.3543 -4.32925 0.805492 -1.585 0.795496 8.79586 -5.41969 -3.78991 -1.7069 20.075 5.0056 -17.8325 -3.73492 6.02913 -13.6458 -0.0470043 -4.849 69.8595 7.01023 20.3629 -28.3255 -0.975887 2.28881 72.6373 45.4772 102.697 -22.1583 -0.530003 10.8316 1.27183 24.9039 19.9561 -0.786006 0.112006 2.5817 -5.86211 5.18456 -9.30005 -0.360107 -0.877994 4.2331 1.47679 -1.18407 4.36336 -1.8127 -1.216 2.2227 1.19728 -0.973918 3.55503 -0.9571 1.114 1.7695 2.64834e-031 9.54166e-015 -1.59028e-015 -4.12461 0.487013 4.1451 -6.61155 0.91501 -0.0984391 -3.40519 -1.454 2.7682 -0.708678 -0.237273 0.0981917 -1.4531 -1.795 1.2713 -2.69829 -0.910289 0.357676 -5.6954 0.210002 2.1184 -5.38679 -1.50383 0.869985 -3.9766 -1.54 2.3863 -4.2667 -1.62963 0.526751 -1.40421 -1.926 1.125 -5.03806 -1.92856 0.609137 -2.0956 0.66 -0.3894 2.64834e-031 9.54166e-015 -1.59028e-015 -5.03951 -0.0899863 2.4971 -6.06663 -2.47 0.0756123 -3.7921 -1.55201 1.4806 -4.45896 -1.88599 0.733238 -1.4655 -1.808 0.960899 -5.23153 -2.21913 0.845943 -4.9141 -1.26899 0.359202 -5.76209 -2.71852 -0.477366 -3.14769 -1.68501 0.846196 -6.58851 -3.0076 0.937666 -0.805504 -1.585 0.795502 -4.93378 -2.25006 0.737845 8.36701 -8.2066 0.598202 -2.21971 -9.54316 -34.822 2.19041 -43.4631 -0.496002 -1.35138 39.2846 0.560849 0.733299 -45.8593 -2.64509 -0.585785 -15.8114 -1.56992 -8.36701 -8.2066 0.598202 9.73637 -5.79888 8.59578 -2.1923 -43.463 -0.493097 4.12262 27.0101 -2.81349 -0.7333 -45.8593 -2.64511 2.12242 -11.7908 -10.8725 
5.24758 97.7299 -4.914 -9.14677 -11.9325 2.43773 1.61829e-006 -1.186 -1.5018 3.3469 3.07187 -1.4568 -2.04426e-007 9.964 0.2134 6.78526 6.05227 -3.09749 -4.28922e-008 13.134 -3.2573 6.78526 6.05227 -3.09749 -4.04093e-006 20.686 -1.6905 -0.487202 30.9552 -12.3802 -8.58251e-007 7.23801 -0.123686 21.8995 8.56155 -11.9212 1.7069 20.075 5.0056 37.4423 -2.90974 -7.531 13.6458 -0.0470216 -4.849 -78.9306 20.6704 -32.9535 28.3255 -0.975884 2.2888 -50.4796 34.0924 -107.234 22.1583 -0.529989 10.8316 -15.7511 -4.67938 -27.8166 0.785999 0.111997 2.5817 6.80068 2.49586 6.32299 0.360094 -0.877996 4.2331 -3.72237 -0.224499 -6.80071 1.8127 -1.21601 2.2227 -3.30015 -0.221163 -6.03119 0.9571 1.114 1.7695 -7.95139e-016 3.18055e-015 -2.28602e-015 4.1246 0.486992 4.1451 11.3654 -1.61553 -2.03768 3.40519 -1.454 2.7682 5.19465 -2.41588 -2.03319 1.4531 -1.79499 1.2713 6.98062 -3.29645 -2.68826 5.6954 0.209986 2.1184 9.30542 -3.87889 -3.56774 3.9766 -1.53999 2.3863 8.26688 -4.36677 -3.17596 1.4042 -1.926 1.125 8.95278 -4.7537 -3.41491 2.0956 0.66 -0.3894 -7.95139e-016 3.18055e-015 -2.28602e-015 5.0395 -0.0900129 2.4971 9.69409 -5.64472 -3.47775 3.7921 -1.55199 1.4806 8.22444 -4.73031 -3.64301 1.4655 -1.808 0.9609 8.88596 -5.13919 -3.91155 4.91411 -1.269 0.359105 9.27808 -6.1181 -3.06182 3.1477 -1.685 0.846203 9.99601 -6.21735 -4.25208 0.8055 -1.58501 0.795501 8.59745 -5.2891 -3.71218 -1.7069 20.075 5.0056 -15.9649 -3.46947 6.90079 -13.6458 -0.047017 -4.84901 70.1287 7.77987 20.2115 -28.3255 -0.975895 2.2888 72.6241 44.8069 99.7544 -22.1583 -0.530007 10.8316 4.47139 22.4487 20.0633 -0.785994 0.112005 2.5817 -5.91891 5.25422 -9.50123 -0.36011 -0.877994 4.2331 1.47675 -1.18407 4.36337 -1.81269 -1.216 2.2227 1.19726 -0.973879 3.55502 -0.9571 1.114 1.7695 -1.59028e-015 0 1.59028e-015 -4.12461 0.487011 4.1451 -6.38276 1.51441 -0.797805 -3.4052 -1.45401 2.7682 -0.461422 -0.154339 0.064326 -1.4531 -1.795 1.2713 -2.46248 -0.829988 0.328081 -5.6954 0.210001 2.1184 -5.06789 -0.936945 0.777945 -3.97661 -1.54 2.3863 -4.03421 -1.53972 0.501167 -1.4042 -1.926 1.125 -4.79356 -1.83362 0.583467 -2.0956 0.66 -0.3894 -1.59028e-015 0 1.59028e-015 -5.03951 -0.0899878 2.4971 -5.76535 -2.46093 0.215232 -3.7921 -1.55201 1.4806 -4.23116 -1.78808 0.699251 -1.4655 -1.808 0.960898 -4.99316 -2.11617 0.811716 -4.91411 -1.26899 0.359203 -5.37912 -2.8155 -0.115998 -3.14769 -1.68501 0.846197 -6.36306 -2.90277 0.911259 -0.805503 -1.585 0.7955 -4.72278 -2.14964 0.709026 8.367 -8.2066 0.598202 -4.57905 -8.89165 -42.3632 2.19234 -43.463 -0.493159 -1.31818 43.3131 0.630018 0.733303 -45.8593 -2.6451 -1.96157 -18.6372 -4.06447 -8.367 -8.2066 0.598202 9.27811 -8.3158 9.76401 -2.19218 -43.463 -0.493597 6.75338 32.2831 -4.3177 -0.7333 -45.8593 -2.6451 1.55816 -14.1105 -9.02486 
5.6968 96.7271 -4.87296 -9.95048 -11.4863 -0.194628 -5.46489e-008 -1.186 -1.5018 3.82932 3.08418 -1.24582 -2.06078e-007 9.964 0.2134 7.7414 6.07735 -2.70117 2.62795e-007 13.134 -3.2573 7.7414 6.07734 -2.70117 -1.76326e-005 20.686 -1.6905 -0.507251 31.5063 -12.8147 -2.82582e-006 7.23801 -0.123686 22.3792 8.20511 -12.2747 1.7069 20.075 5.0056 38.1375 -2.88695 -9.41538 13.6458 -0.0470155 -4.849 -78.2125 20.8967 -33.5334 28.3255 -0.975904 2.2888 -51.6953 32.8208 -105.021 22.1583 -0.529987 10.8316 -20.9855 -9.99558 -29.1885 0.786004 0.111996 2.5817 6.90014 2.52066 6.50586 0.360099 -0.877999 4.2331 -3.72223 -0.224374 -6.8008 1.81269 -1.21601 2.22269 -3.30015 -0.221167 -6.03117 0.9571 1.114 1.7695 1.59028e-015 -3.18055e-015 -3.77691e-015 4.12461 0.48699 4.14511 11.3644 -1.08255 -1.30462 3.4052 -1.45401 2.7682 4.99379 -2.31838 -1.95806 1.4531 -1.79499 1.2713 6.78804 -3.20032 -2.6188 5.6954 0.209988 2.1184 9.10801 -3.31366 -3.38325 3.9766 -1.53999 2.3863 8.07182 -4.25733 -3.10744 1.40419 -1.92599 1.125 8.75301 -4.64057 -3.34589 2.0956 0.66 -0.3894 1.59028e-015 -3.18055e-015 -3.77691e-015 5.0395 -0.0900132 2.4971 9.39116 -5.58351 -3.56193 3.7921 -1.55199 1.4806 8.02655 -4.60871 -3.56197 1.4655 -1.80801 0.960903 8.69878 -5.02301 -3.83604 4.9141 -1.269 0.359097 8.83994 -6.12285 -3.35359 3.1477 -1.68501 0.846204 9.81185 -6.09419 -4.18214 0.805498 -1.58501 0.795499 8.39892 -5.1588 -3.63399 -1.7069 20.075 5.0056 -14.3258 -3.26552 7.48387 -13.6458 -0.0470164 -4.84901 70.1941 9.03835 19.9391 -28.3255 -0.975884 2.2888 75.1981 45.7425 95.1892 -22.1583 -0.530003 10.8316 4.34237 19.5786 21.5902 -0.786008 0.112005 2.5817 -5.97544 5.32407 -9.70234 -0.360103 -0.877992 4.2331 1.4767 -1.18402 4.3634 -1.81269 -1.216 2.2227 1.19724 -0.973856 3.55504 -0.9571 1.114 1.7695 -2.64834e-031 -6.36111e-015 -2.38542e-015 -4.12461 0.487011 4.1451 -6.15471 2.09118 -1.46596 -3.40519 -1.454 2.7682 -0.237563 -0.079394 0.0333559 -1.45309 -1.79499 1.2713 -2.22663 -0.749833 0.298169 -5.6954 0.210002 2.1184 -4.7605 -0.394478 0.690271 -3.97661 -1.54 2.3863 -3.8017 -1.44995 0.475194 -1.40421 -1.926 1.125 -4.5732 -1.74817 0.559971 -2.0956 0.66 -0.3894 -2.64834e-031 -6.36111e-015 -2.38542e-015 -5.03951 -0.089987 2.49711 -5.47704 -2.45225 0.348272 -3.79209 -1.552 1.4806 -4.00333 -1.69031 0.664875 -1.46551 -1.80801 0.960903 -4.7773 -2.02305 0.780376 -4.9141 -1.26899 0.359202 -5.01198 -2.90766 0.229321 -3.14769 -1.68501 0.846196 -6.13759 -2.798 0.884394 -0.805502 -1.585 0.7955 -4.51176 -2.04935 0.679852 8.367 -8.2066 0.598203 -6.04479 -8.90423 -46.4362 2.19319 -43.463 -0.492414 -1.31103 46.4956 0.641218 0.733304 -45.8594 -2.6451 -2.56414 -20.8332 -4.42568 -8.367 -8.2066 0.598203 8.68186 -10.6958 9.48206 -2.19225 -43.4631 -0.493305 9.0105 35.7266 -5.54242 -0.733301 -45.8593 -2.64511 1.10183 -15.2906 -5.95407 
